<svg xmlns="http://www.w3.org/2000/svg" xmlns:xlink="http://www.w3.org/1999/xlink" width="1920" zoomAndPan="magnify" viewBox="0 0 1440 809.999993" height="1080" preserveAspectRatio="xMidYMid meet" version="1.0"><defs><g/></defs><rect x="-144" width="1728" fill="#ffffff" y="-80.999999" height="971.999992" fill-opacity="1"/><rect x="-144" width="1728" fill="#004aad" y="-80.999999" height="971.999992" fill-opacity="1"/><g fill="#ffffff" fill-opacity="1"><g transform="translate(425.449209, 456.374997)"><g><path d="M 54.046875 0 C 53.066406 -1.90625 52.359375 -4.273438 51.921875 -7.109375 C 46.796875 -1.390625 40.132812 1.46875 31.9375 1.46875 C 24.164062 1.46875 17.726562 -0.773438 12.625 -5.265625 C 7.53125 -9.765625 4.984375 -15.429688 4.984375 -22.265625 C 4.984375 -30.660156 8.09375 -37.101562 14.3125 -41.59375 C 20.539062 -46.082031 29.535156 -48.351562 41.296875 -48.40625 L 51.046875 -48.40625 L 51.046875 -52.953125 C 51.046875 -56.609375 50.101562 -59.535156 48.21875 -61.734375 C 46.34375 -63.929688 43.378906 -65.03125 39.328125 -65.03125 C 35.765625 -65.03125 32.96875 -64.175781 30.9375 -62.46875 C 28.914062 -60.757812 27.90625 -58.414062 27.90625 -55.4375 L 6.734375 -55.4375 C 6.734375 -60.03125 8.148438 -64.28125 10.984375 -68.1875 C 13.816406 -72.09375 17.820312 -75.15625 23 -77.375 C 28.175781 -79.59375 33.984375 -80.703125 40.421875 -80.703125 C 50.191406 -80.703125 57.941406 -78.25 63.671875 -73.34375 C 69.410156 -68.4375 72.28125 -61.539062 72.28125 -52.65625 L 72.28125 -18.3125 C 72.332031 -10.789062 73.382812 -5.101562 75.4375 -1.25 L 75.4375 0 Z M 36.546875 -14.71875 C 39.671875 -14.71875 42.550781 -15.410156 45.1875 -16.796875 C 47.820312 -18.191406 49.773438 -20.0625 51.046875 -22.40625 L 51.046875 -36.03125 L 43.140625 -36.03125 C 32.546875 -36.03125 26.90625 -32.367188 26.21875 -25.046875 L 26.140625 -23.796875 C 26.140625 -21.160156 27.066406 -18.988281 28.921875 -17.28125 C 30.773438 -15.570312 33.316406 -14.71875 36.546875 -14.71875 Z M 36.546875 -14.71875 "/></g></g></g><g fill="#ffffff" fill-opacity="1"><g transform="translate(505.856561, 456.374997)"><g><path d="M 51.046875 -21.890625 C 51.046875 -24.484375 49.765625 -26.523438 47.203125 -28.015625 C 44.640625 -29.503906 40.523438 -30.832031 34.859375 -32 C 16.015625 -35.957031 6.59375 -43.96875 6.59375 -56.03125 C 6.59375 -63.050781 9.507812 -68.914062 15.34375 -73.625 C 21.175781 -78.34375 28.804688 -80.703125 38.234375 -80.703125 C 48.285156 -80.703125 56.328125 -78.332031 62.359375 -73.59375 C 68.390625 -68.863281 71.40625 -62.710938 71.40625 -55.140625 L 50.234375 -55.140625 C 50.234375 -58.171875 49.253906 -60.675781 47.296875 -62.65625 C 45.347656 -64.632812 42.300781 -65.625 38.15625 -65.625 C 34.59375 -65.625 31.832031 -64.816406 29.875 -63.203125 C 27.925781 -61.585938 26.953125 -59.535156 26.953125 -57.046875 C 26.953125 -54.703125 28.0625 -52.8125 30.28125 -51.375 C 32.5 -49.9375 36.242188 -48.691406 41.515625 -47.640625 C 46.796875 -46.585938 51.242188 -45.40625 54.859375 -44.09375 C 66.035156 -39.988281 71.625 -32.882812 71.625 -22.78125 C 71.625 -15.550781 68.519531 -9.703125 62.3125 -5.234375 C 56.113281 -0.765625 48.109375 1.46875 38.296875 1.46875 C 31.660156 1.46875 25.765625 0.285156 20.609375 -2.078125 C 15.460938 -4.453125 11.421875 -7.703125 8.484375 -11.828125 C 5.554688 -15.953125 4.09375 -20.40625 4.09375 -25.1875 L 24.171875 -25.1875 C 24.359375 -21.425781 25.742188 -18.546875 28.328125 -16.546875 C 30.921875 -14.546875 34.390625 -13.546875 38.734375 -13.546875 C 42.785156 -13.546875 45.847656 -14.3125 47.921875 -15.84375 C 50.003906 -17.382812 51.046875 -19.398438 51.046875 -21.890625 Z M 51.046875 -21.890625 "/></g></g></g><g fill="#ffffff" fill-opacity="1"><g transform="translate(582.96853, 456.374997)"><g><path d="M 33.46875 -98.71875 L 33.46875 -79.234375 L 47.015625 -79.234375 L 47.015625 -63.71875 L 33.46875 -63.71875 L 33.46875 -24.171875 C 33.46875 -21.234375 34.03125 -19.128906 35.15625 -17.859375 C 36.28125 -16.597656 38.425781 -15.96875 41.59375 -15.96875 C 43.9375 -15.96875 46.015625 -16.140625 47.828125 -16.484375 L 47.828125 -0.4375 C 43.671875 0.832031 39.394531 1.46875 35 1.46875 C 20.164062 1.46875 12.597656 -6.023438 12.296875 -21.015625 L 12.296875 -63.71875 L 0.734375 -63.71875 L 0.734375 -79.234375 L 12.296875 -79.234375 L 12.296875 -98.71875 Z M 33.46875 -98.71875 "/></g></g></g><g fill="#ffffff" fill-opacity="1"><g transform="translate(633.644191, 456.374997)"><g><path d="M 52.65625 -59.390625 C 49.769531 -59.785156 47.234375 -59.984375 45.046875 -59.984375 C 37.035156 -59.984375 31.785156 -57.269531 29.296875 -51.84375 L 29.296875 0 L 8.125 0 L 8.125 -79.234375 L 28.125 -79.234375 L 28.703125 -69.796875 C 32.953125 -77.066406 38.835938 -80.703125 46.359375 -80.703125 C 48.703125 -80.703125 50.898438 -80.382812 52.953125 -79.75 Z M 52.65625 -59.390625 "/></g></g></g><g fill="#ffffff" fill-opacity="1"><g transform="translate(688.347542, 456.374997)"><g><path d="M 4.828125 -40.359375 C 4.828125 -48.210938 6.34375 -55.210938 9.375 -61.359375 C 12.40625 -67.515625 16.765625 -72.273438 22.453125 -75.640625 C 28.140625 -79.015625 34.738281 -80.703125 42.25 -80.703125 C 52.945312 -80.703125 61.675781 -77.429688 68.4375 -70.890625 C 75.195312 -64.347656 78.96875 -55.460938 79.75 -44.234375 L 79.90625 -38.8125 C 79.90625 -26.65625 76.507812 -16.898438 69.71875 -9.546875 C 62.9375 -2.203125 53.832031 1.46875 42.40625 1.46875 C 30.976562 1.46875 21.859375 -2.191406 15.046875 -9.515625 C 8.234375 -16.835938 4.828125 -26.800781 4.828125 -39.40625 Z M 26 -38.8125 C 26 -31.289062 27.414062 -25.539062 30.25 -21.5625 C 33.082031 -17.582031 37.132812 -15.59375 42.40625 -15.59375 C 47.53125 -15.59375 51.53125 -17.554688 54.40625 -21.484375 C 57.289062 -25.421875 58.734375 -31.710938 58.734375 -40.359375 C 58.734375 -47.722656 57.289062 -53.429688 54.40625 -57.484375 C 51.53125 -61.535156 47.476562 -63.5625 42.25 -63.5625 C 37.082031 -63.5625 33.082031 -61.546875 30.25 -57.515625 C 27.414062 -53.492188 26 -47.257812 26 -38.8125 Z M 26 -38.8125 "/></g></g></g><g fill="#ffffff" fill-opacity="1"><g transform="translate(773.148738, 456.374997)"><g><path d="M 69.71875 -21.96875 L 31.203125 -21.96875 L 23.875 0 L 0.515625 0 L 40.203125 -106.625 L 60.5625 -106.625 L 100.484375 0 L 77.109375 0 Z M 37.125 -39.765625 L 63.78125 -39.765625 L 50.390625 -79.671875 Z M 37.125 -39.765625 "/></g></g></g><g fill="#ffffff" fill-opacity="1"><g transform="translate(874.060698, 456.374997)"><g><path d="M 31.484375 -37.5625 L 31.484375 0 L 9.515625 0 L 9.515625 -106.625 L 51.125 -106.625 C 59.125 -106.625 66.160156 -105.160156 72.234375 -102.234375 C 78.316406 -99.304688 82.992188 -95.144531 86.265625 -89.75 C 89.535156 -84.351562 91.171875 -78.210938 91.171875 -71.328125 C 91.171875 -60.878906 87.59375 -52.640625 80.4375 -46.609375 C 73.289062 -40.578125 63.394531 -37.5625 50.75 -37.5625 Z M 31.484375 -55.359375 L 51.125 -55.359375 C 56.925781 -55.359375 61.351562 -56.722656 64.40625 -59.453125 C 67.457031 -62.191406 68.984375 -66.101562 68.984375 -71.1875 C 68.984375 -76.40625 67.445312 -80.625 64.375 -83.84375 C 61.300781 -87.070312 57.050781 -88.734375 51.625 -88.828125 L 31.484375 -88.828125 Z M 31.484375 -55.359375 "/></g></g></g><g fill="#ffffff" fill-opacity="1"><g transform="translate(970.798517, 456.374997)"><g><path d="M 32.875 0 L 10.90625 0 L 10.90625 -106.625 L 32.875 -106.625 Z M 32.875 0 "/></g></g></g></svg>