<?xml version="1.0" encoding="UTF-8"?>
<!DOCTYPE svg PUBLIC "-//W3C//DTD SVG 1.1//EN" "http://www.w3.org/Graphics/SVG/1.1/DTD/svg11.dtd">
<svg xmlns="http://www.w3.org/2000/svg" version="1.1" width="640px" height="480px" style="shape-rendering:geometricPrecision; text-rendering:geometricPrecision; image-rendering:optimizeQuality; fill-rule:evenodd; clip-rule:evenodd" xmlns:xlink="http://www.w3.org/1999/xlink">
<g><path style="opacity:0.997" fill="#ced4ef" d="M 128.5,88.5 C 150.671,96.8364 172.671,105.67 194.5,115C 201.511,117.337 208.511,119.67 215.5,122C 233.031,133.599 250.031,145.932 266.5,159C 290.394,178.787 304.061,204.121 307.5,235C 305.95,240.034 305.117,245.201 305,250.5C 294.31,269.525 279.81,285.025 261.5,297C 244.603,307.951 226.936,317.618 208.5,326C 183.121,336.404 157.787,346.904 132.5,357.5C 119.133,354.299 110.966,345.966 108,332.5C 105.682,321.955 104.182,311.288 103.5,300.5C 106.832,287.777 110.665,275.11 115,262.5C 117.301,254.63 118.967,246.63 120,238.5C 120.197,236.139 121.364,234.472 123.5,233.5C 126.693,216.258 126.859,198.925 124,181.5C 122.294,171.305 120.461,161.139 118.5,151C 119.069,147.183 119.403,143.349 119.5,139.5C 121.833,139.5 124.167,139.5 126.5,139.5C 126.664,136.813 126.497,134.146 126,131.5C 123.778,125.445 121.945,119.278 120.5,113C 122.481,104.563 125.148,96.3963 128.5,88.5 Z M 166.5,156.5 C 176.033,160.742 185.7,164.908 195.5,169C 198.576,169.346 201.576,170.012 204.5,171C 213.333,176.416 222.666,180.75 232.5,184C 233.917,187.249 235.917,190.083 238.5,192.5C 245.516,199.35 252.683,206.017 260,212.5C 260.85,214.01 261.683,215.51 262.5,217C 256.997,228.172 248.997,237.172 238.5,244C 227.68,250.41 216.347,255.743 204.5,260C 202.167,262.333 199.833,264.667 197.5,267C 186.839,270.084 176.339,273.584 166,277.5C 169.401,258.558 171.568,239.391 172.5,220C 172.34,198.879 169.34,178.213 163.5,158C 164.737,157.768 165.737,157.268 166.5,156.5 Z"/></g>
<g><path style="opacity:0.996" fill="#ced4ef" d="M 476.5,134.5 C 490.864,133.397 504.864,135.064 518.5,139.5C 524.108,147.714 528.941,156.381 533,165.5C 539.049,170.291 540.549,176.124 537.5,183C 533,186.085 528.333,188.918 523.5,191.5C 517.11,189.888 510.61,188.888 504,188.5C 495.337,189.214 486.67,189.881 478,190.5C 473.23,190.078 468.563,189.078 464,187.5C 448.666,190.625 433.499,194.292 418.5,198.5C 419.095,200.893 420.428,202.727 422.5,204C 427.091,205.864 431.757,207.53 436.5,209C 438.976,210.309 440.976,212.142 442.5,214.5C 455.888,217.898 463.222,226.565 464.5,240.5C 466.059,241.074 467.559,241.74 469,242.5C 470.99,247.813 473.99,252.48 478,256.5C 484.612,271.432 483.946,286.099 476,300.5C 461.694,322.132 442.527,337.966 418.5,348C 410.319,351.394 401.986,354.394 393.5,357C 391.231,357.758 389.064,357.591 387,356.5C 385.829,357.893 384.329,358.727 382.5,359C 374.5,359.667 366.5,359.667 358.5,359C 352.024,353 348.357,345.833 347.5,337.5C 348.507,332.691 348.507,327.858 347.5,323C 347.158,311.505 352.491,307.339 363.5,310.5C 375.316,309.546 386.649,306.713 397.5,302C 408.99,296.422 420.323,290.589 431.5,284.5C 434.776,279.721 438.609,275.388 443,271.5C 446.393,267.893 446.226,264.56 442.5,261.5C 431.4,256.284 420.067,251.617 408.5,247.5C 406.894,248.077 405.228,248.41 403.5,248.5C 392.235,246.54 380.902,245.04 369.5,244C 357.584,242.455 347.417,237.622 339,229.5C 337.23,226.958 335.73,224.291 334.5,221.5C 336.094,217.11 335.761,212.944 333.5,209C 333.075,194.517 338.741,183.184 350.5,175C 356.888,171.139 363.554,167.806 370.5,165C 396.626,154.736 423.293,146.069 450.5,139C 459.269,137.252 467.935,135.752 476.5,134.5 Z"/></g>
</svg>
