<svg xmlns="http://www.w3.org/2000/svg" xmlns:xlink="http://www.w3.org/1999/xlink" width="1920" zoomAndPan="magnify" viewBox="0 0 1440 809.999993" height="1080" preserveAspectRatio="xMidYMid meet" version="1.0"><defs><g/></defs><rect x="-144" width="1728" fill="#ffffff" y="-80.999999" height="971.999992" fill-opacity="1"/><rect x="-144" width="1728" fill="#000000" y="-80.999999" height="971.999992" fill-opacity="1"/><g fill="#ffffff" fill-opacity="1"><g transform="translate(425.449209, 456.374997)"><g><path d="M 31.484375 -37.5625 L 31.484375 0 L 9.515625 0 L 9.515625 -106.625 L 51.125 -106.625 C 59.125 -106.625 66.160156 -105.160156 72.234375 -102.234375 C 78.316406 -99.304688 82.992188 -95.144531 86.265625 -89.75 C 89.535156 -84.351562 91.171875 -78.210938 91.171875 -71.328125 C 91.171875 -60.878906 87.59375 -52.640625 80.4375 -46.609375 C 73.289062 -40.578125 63.394531 -37.5625 50.75 -37.5625 Z M 31.484375 -55.359375 L 51.125 -55.359375 C 56.925781 -55.359375 61.351562 -56.722656 64.40625 -59.453125 C 67.457031 -62.191406 68.984375 -66.101562 68.984375 -71.1875 C 68.984375 -76.40625 67.445312 -80.625 64.375 -83.84375 C 61.300781 -87.070312 57.050781 -88.734375 51.625 -88.828125 L 31.484375 -88.828125 Z M 31.484375 -55.359375 "/></g></g></g><g fill="#ffffff" fill-opacity="1"><g transform="translate(522.187016, 456.374997)"><g><path d="M 4.828125 -40.359375 C 4.828125 -48.210938 6.34375 -55.210938 9.375 -61.359375 C 12.40625 -67.515625 16.765625 -72.273438 22.453125 -75.640625 C 28.140625 -79.015625 34.738281 -80.703125 42.25 -80.703125 C 52.945312 -80.703125 61.675781 -77.429688 68.4375 -70.890625 C 75.195312 -64.347656 78.96875 -55.460938 79.75 -44.234375 L 79.90625 -38.8125 C 79.90625 -26.65625 76.507812 -16.898438 69.71875 -9.546875 C 62.9375 -2.203125 53.832031 1.46875 42.40625 1.46875 C 30.976562 1.46875 21.859375 -2.191406 15.046875 -9.515625 C 8.234375 -16.835938 4.828125 -26.800781 4.828125 -39.40625 Z M 26 -38.8125 C 26 -31.289062 27.414062 -25.539062 30.25 -21.5625 C 33.082031 -17.582031 37.132812 -15.59375 42.40625 -15.59375 C 47.53125 -15.59375 51.53125 -17.554688 54.40625 -21.484375 C 57.289062 -25.421875 58.734375 -31.710938 58.734375 -40.359375 C 58.734375 -47.722656 57.289062 -53.429688 54.40625 -57.484375 C 51.53125 -61.535156 47.476562 -63.5625 42.25 -63.5625 C 37.082031 -63.5625 33.082031 -61.546875 30.25 -57.515625 C 27.414062 -53.492188 26 -47.257812 26 -38.8125 Z M 26 -38.8125 "/></g></g></g><g fill="#ffffff" fill-opacity="1"><g transform="translate(606.988212, 456.374997)"><g><path d="M 52.65625 -59.390625 C 49.769531 -59.785156 47.234375 -59.984375 45.046875 -59.984375 C 37.035156 -59.984375 31.785156 -57.269531 29.296875 -51.84375 L 29.296875 0 L 8.125 0 L 8.125 -79.234375 L 28.125 -79.234375 L 28.703125 -69.796875 C 32.953125 -77.066406 38.835938 -80.703125 46.359375 -80.703125 C 48.703125 -80.703125 50.898438 -80.382812 52.953125 -79.75 Z M 52.65625 -59.390625 "/></g></g></g><g fill="#ffffff" fill-opacity="1"><g transform="translate(661.691575, 456.374997)"><g><path d="M 33.46875 -98.71875 L 33.46875 -79.234375 L 47.015625 -79.234375 L 47.015625 -63.71875 L 33.46875 -63.71875 L 33.46875 -24.171875 C 33.46875 -21.234375 34.03125 -19.128906 35.15625 -17.859375 C 36.28125 -16.597656 38.425781 -15.96875 41.59375 -15.96875 C 43.9375 -15.96875 46.015625 -16.140625 47.828125 -16.484375 L 47.828125 -0.4375 C 43.671875 0.832031 39.394531 1.46875 35 1.46875 C 20.164062 1.46875 12.597656 -6.023438 12.296875 -21.015625 L 12.296875 -63.71875 L 0.734375 -63.71875 L 0.734375 -79.234375 L 12.296875 -79.234375 L 12.296875 -98.71875 Z M 33.46875 -98.71875 "/></g></g></g><g fill="#ffffff" fill-opacity="1"><g transform="translate(712.367247, 456.374997)"><g><path d="M 13.921875 0 L 13.921875 -63.71875 L 2.125 -63.71875 L 2.125 -79.234375 L 13.921875 -79.234375 L 13.921875 -85.984375 C 13.921875 -94.867188 16.46875 -101.765625 21.5625 -106.671875 C 26.664062 -111.578125 33.804688 -114.03125 42.984375 -114.03125 C 45.910156 -114.03125 49.5 -113.539062 53.75 -112.5625 L 53.53125 -96.15625 C 51.769531 -96.59375 49.625 -96.8125 47.09375 -96.8125 C 39.132812 -96.8125 35.15625 -93.078125 35.15625 -85.609375 L 35.15625 -79.234375 L 50.890625 -79.234375 L 50.890625 -63.71875 L 35.15625 -63.71875 L 35.15625 0 Z M 13.921875 0 "/></g></g></g><g fill="#ffffff" fill-opacity="1"><g transform="translate(766.11861, 456.374997)"><g><path d="M 4.828125 -40.359375 C 4.828125 -48.210938 6.34375 -55.210938 9.375 -61.359375 C 12.40625 -67.515625 16.765625 -72.273438 22.453125 -75.640625 C 28.140625 -79.015625 34.738281 -80.703125 42.25 -80.703125 C 52.945312 -80.703125 61.675781 -77.429688 68.4375 -70.890625 C 75.195312 -64.347656 78.96875 -55.460938 79.75 -44.234375 L 79.90625 -38.8125 C 79.90625 -26.65625 76.507812 -16.898438 69.71875 -9.546875 C 62.9375 -2.203125 53.832031 1.46875 42.40625 1.46875 C 30.976562 1.46875 21.859375 -2.191406 15.046875 -9.515625 C 8.234375 -16.835938 4.828125 -26.800781 4.828125 -39.40625 Z M 26 -38.8125 C 26 -31.289062 27.414062 -25.539062 30.25 -21.5625 C 33.082031 -17.582031 37.132812 -15.59375 42.40625 -15.59375 C 47.53125 -15.59375 51.53125 -17.554688 54.40625 -21.484375 C 57.289062 -25.421875 58.734375 -31.710938 58.734375 -40.359375 C 58.734375 -47.722656 57.289062 -53.429688 54.40625 -57.484375 C 51.53125 -61.535156 47.476562 -63.5625 42.25 -63.5625 C 37.082031 -63.5625 33.082031 -61.546875 30.25 -57.515625 C 27.414062 -53.492188 26 -47.257812 26 -38.8125 Z M 26 -38.8125 "/></g></g></g><g fill="#ffffff" fill-opacity="1"><g transform="translate(850.919829, 456.374997)"><g><path d="M 30.46875 0 L 9.234375 0 L 9.234375 -112.484375 L 30.46875 -112.484375 Z M 30.46875 0 "/></g></g></g><g fill="#ffffff" fill-opacity="1"><g transform="translate(890.684109, 456.374997)"><g><path d="M 30.46875 0 L 9.234375 0 L 9.234375 -79.234375 L 30.46875 -79.234375 Z M 7.984375 -99.75 C 7.984375 -102.914062 9.046875 -105.523438 11.171875 -107.578125 C 13.296875 -109.628906 16.1875 -110.65625 19.84375 -110.65625 C 23.457031 -110.65625 26.335938 -109.628906 28.484375 -107.578125 C 30.628906 -105.523438 31.703125 -102.914062 31.703125 -99.75 C 31.703125 -96.519531 30.613281 -93.878906 28.4375 -91.828125 C 26.269531 -89.785156 23.40625 -88.765625 19.84375 -88.765625 C 16.28125 -88.765625 13.410156 -89.785156 11.234375 -91.828125 C 9.066406 -93.878906 7.984375 -96.519531 7.984375 -99.75 Z M 7.984375 -99.75 "/></g></g></g><g fill="#ffffff" fill-opacity="1"><g transform="translate(930.44839, 456.374997)"><g><path d="M 4.828125 -40.359375 C 4.828125 -48.210938 6.34375 -55.210938 9.375 -61.359375 C 12.40625 -67.515625 16.765625 -72.273438 22.453125 -75.640625 C 28.140625 -79.015625 34.738281 -80.703125 42.25 -80.703125 C 52.945312 -80.703125 61.675781 -77.429688 68.4375 -70.890625 C 75.195312 -64.347656 78.96875 -55.460938 79.75 -44.234375 L 79.90625 -38.8125 C 79.90625 -26.65625 76.507812 -16.898438 69.71875 -9.546875 C 62.9375 -2.203125 53.832031 1.46875 42.40625 1.46875 C 30.976562 1.46875 21.859375 -2.191406 15.046875 -9.515625 C 8.234375 -16.835938 4.828125 -26.800781 4.828125 -39.40625 Z M 26 -38.8125 C 26 -31.289062 27.414062 -25.539062 30.25 -21.5625 C 33.082031 -17.582031 37.132812 -15.59375 42.40625 -15.59375 C 47.53125 -15.59375 51.53125 -17.554688 54.40625 -21.484375 C 57.289062 -25.421875 58.734375 -31.710938 58.734375 -40.359375 C 58.734375 -47.722656 57.289062 -53.429688 54.40625 -57.484375 C 51.53125 -61.535156 47.476562 -63.5625 42.25 -63.5625 C 37.082031 -63.5625 33.082031 -61.546875 30.25 -57.515625 C 27.414062 -53.492188 26 -47.257812 26 -38.8125 Z M 26 -38.8125 "/></g></g></g></svg>